<svg width="680" height="300" viewBox="0 0 680 300" xmlns="http://www.w3.org/2000/svg">
<defs>
<marker id="arrow" viewBox="0 0 10 10" refX="8" refY="5" markerWidth="6" markerHeight="6" orient="auto-start-reverse">
<path d="M2 1L8 5L2 9" fill="none" stroke="#64748b" stroke-width="1.5" stroke-linecap="round" stroke-linejoin="round"/>
</marker>
</defs>
<style>
.th{font-family:system-ui,-apple-system,Segoe UI,Arial,sans-serif;font-size:16px;font-weight:600;fill:#f1f5f9;}
.ts{font-family:system-ui,-apple-system,Segoe UI,Arial,sans-serif;font-size:13px;fill:#94a3b8;}
.arr{stroke:#64748b;stroke-width:1.5;}
</style>

<rect x="230" y="30" width="220" height="56" rx="8" fill="rgba(71,85,105,0.16)" stroke="#64748b" stroke-width="1.5"/>
<text class="th" x="340" y="50" text-anchor="middle" dominant-baseline="central">Track permit status</text>
<text class="ts" x="340" y="68" text-anchor="middle" dominant-baseline="central">Open status lookup page</text>

<path d="M280 86 L280 110 L140 110 L140 140" fill="none" stroke="#64748b" stroke-width="1.5" marker-end="url(#arrow)"/>
<path d="M400 86 L400 110 L540 110 L540 140" fill="none" stroke="#64748b" stroke-width="1.5" marker-end="url(#arrow)"/>

<rect x="30" y="140" width="220" height="56" rx="8" fill="rgba(20,184,166,0.14)" stroke="#14b8a6" stroke-width="1.5"/>
<text class="th" x="140" y="160" text-anchor="middle" dominant-baseline="central">Enter ID number</text>
<text class="ts" x="140" y="178" text-anchor="middle" dominant-baseline="central">Shows that person's requests</text>

<rect x="430" y="140" width="220" height="56" rx="8" fill="rgba(20,184,166,0.14)" stroke="#14b8a6" stroke-width="1.5"/>
<text class="th" x="540" y="160" text-anchor="middle" dominant-baseline="central">Skip ID number</text>
<text class="ts" x="540" y="178" text-anchor="middle" dominant-baseline="central">Shows all submitted requests</text>

<path d="M140 196 L140 220 L340 220 L340 240" fill="none" stroke="#64748b" stroke-width="1.5"/>
<path d="M540 196 L540 220 L340 220 L340 240" fill="none" stroke="#64748b" stroke-width="1.5" marker-end="url(#arrow)"/>

<rect x="230" y="240" width="220" height="44" rx="8" fill="rgba(34,197,94,0.14)" stroke="#22c55e" stroke-width="1.5"/>
<text class="th" x="340" y="262" text-anchor="middle" dominant-baseline="central">Current status displayed</text>
</svg>
